<svg width="100" height="100" viewBox="0 0 100 100" xmlns="http://www.w3.org/2000/svg">
  <defs>
    <radialGradient id="g" cx="0.5" cy="0.42" r="0.62">
      <stop offset="0" stop-color="#11271c"/>
      <stop offset="1" stop-color="#070a09"/>
    </radialGradient>
    <linearGradient id="r" x1="0" y1="0" x2="1" y2="1">
      <stop offset="0" stop-color="#3ad07f"/>
      <stop offset="1" stop-color="#2a9d63"/>
    </linearGradient>
  </defs>
  <circle cx="50" cy="50" r="50" fill="url(#g)"/>
  <circle cx="50" cy="50" r="44" fill="none" stroke="url(#r)" stroke-width="5"/>
  <g>
    <g transform="translate(50,50) rotate(45)">
      <rect x="-4" y="-30" width="8" height="56" rx="4" fill="#e9f1ec"/>
      <polygon points="-4,-30 4,-30 0,-37" fill="#cfe0ff"/>
      <rect x="-13" y="24" width="26" height="6" rx="3" fill="#ffbd2e"/>
      <rect x="-4" y="30" width="8" height="13" rx="4" fill="#5d726a"/>
    </g>
    <g transform="translate(50,50) rotate(-45)">
      <rect x="-4" y="-30" width="8" height="56" rx="4" fill="#e9f1ec"/>
      <polygon points="-4,-30 4,-30 0,-37" fill="#cfe0ff"/>
      <rect x="-13" y="24" width="26" height="6" rx="3" fill="#ffbd2e"/>
      <rect x="-4" y="30" width="8" height="13" rx="4" fill="#5d726a"/>
    </g>
    <circle cx="50" cy="50" r="6.5" fill="#3ad07f"/>
  </g>
</svg>
